#!OML:ASF I:\golf\golf\golf 2\Subject 1\2002-09-07\Subject1.ASF
:FULLY-SPECIFIED
:DEGREES
251
root -6.39083 18.1202 -0.147644 -164.953 70.0179 -179.014
lowerback -3.87322 -8.26949 2.18424
upperback 4.7802 -11.4715 9.73528
thorax 8.95416 -5.71029 7.87227
lowerneck -10.0427 0.179543 1.98039
upperneck 27.1148 4.87254 -14.6131
head 10.7949 1.1794 -5.00574
rclavicle 5.80451e-014 -6.36111e-015
rhumerus -5.28865 -4.45459 -89.6079
rradius 58.4309
rwrist -54.1611
rhand -53.0089 3.64566
rfingers 7.12502
rthumb -25.4743 -24.6717
lclavicle 5.80451e-014 -6.36111e-015
lhumerus 22.8023 -47.5581 100.72
lradius 14.3841
lwrist -18.3988
lhand 0.0961939 35.36
lfingers 7.12502
lthumb -154.317 -116.352
rfemur -23.4185 -1.53505 7.58318
rtibia 35.5484
rfoot -5.76425 -23.6953
rtoes -0.916067
lfemur -24.6473 5.99629 -15.1644
ltibia 17.1028
lfoot -6.93126 -15.1668
ltoes -18.8405
252
root -6.37504 18.1357 -0.21673 -166.974 68.1966 -180.322
lowerback -4.41792 -7.87234 2.45758
upperback 4.67118 -10.9733 10.1573
thorax 9.12541 -5.44078 8.20665
lowerneck -9.90412 -0.879633 1.39944
upperneck 27.5646 3.56838 -14.4812
head 10.7884 0.560844 -5.02035
rclavicle -1.06549e-013 -3.65764e-014
rhumerus -6.07357 -3.0818 -90.3265
rradius 55.3493
rwrist -56.7582
rhand -51.3177 2.66418
rfingers 7.12502
rthumb -23.8533 -25.8747
lclavicle -1.06549e-013 -3.65764e-014
lhumerus 20.1714 -46.0616 101.718
lradius 13.258
lwrist -18.8073
lhand 1.41265 37.0762
lfingers 7.12502
lthumb -153.057 -114.825
rfemur -22.1004 -1.58784 6.90503
rtibia 36.004
rfoot -5.55898 -24.209
rtoes 0.778065
lfemur -23.3133 5.34696 -15.8231
ltibia 15.6792
lfoot -6.32222 -16.4013
ltoes -17.217
253
root -6.35826 18.1483 -0.283878 -168.805 66.4605 -181.464
lowerback -5.06668 -7.41452 2.38493
upperback 4.63079 -10.3893 10.7507
thorax 9.52882 -5.16112 8.94414
lowerneck -9.76062 -2.0338 0.631762
upperneck 27.7874 2.15143 -14.4207
head 10.6998 -0.129755 -5.02422
rclavicle 4.6118e-014 7.63333e-014
rhumerus -6.30217 -1.77174 -90.7515
rradius 52.0619
rwrist -59.2673
rhand -49.3955 1.80812
rfingers 7.12502
rthumb -22.0088 -26.9597
lclavicle 4.6118e-014 7.63333e-014
lhumerus 18.0791 -44.5496 102.662
lradius 12.2558
lwrist -19.203
lhand 3.31712 39.8982
lfingers 7.12502
lthumb -151.236 -112.298
rfemur -20.7949 -1.65351 6.21542
rtibia 36.4045
rfoot -5.28391 -24.542
rtoes 2.75696
lfemur -22.1125 4.70397 -16.4939
ltibia 14.5949
lfoot -5.88916 -17.461
ltoes -16.3384
254
root -6.34209 18.1645 -0.357764 -170.103 64.4975 -182.122
lowerback -5.666 -7.00808 2.93215
upperback 4.4387 -9.89031 11.0722
thorax 9.55587 -4.86255 9.03132
lowerneck -9.51844 -3.14877 0.344163
upperneck 28.158 0.681387 -14.3004
head 10.646 -0.792119 -5.09807
rclavicle 1.74931e-014 -1.33583e-013
rhumerus -6.54822 -0.41656 -91.8096
rradius 48.6938
rwrist -62.424
rhand -49.1614 3.16762
rfingers 7.12502
rthumb -21.784 -25.6264
lclavicle 1.74931e-014 -1.33583e-013
lhumerus 16.0414 -44.0961 102.789
lradius 11.4784
lwrist -18.1921
lhand 5.18341 43.2935
lfingers 7.12502
lthumb -149.455 -109.219
rfemur -19.4821 -1.87995 5.71711
rtibia 36.7854
rfoot -4.88791 -24.7898
rtoes 4.31641
lfemur -20.9886 4.02668 -17.0656
ltibia 13.6221
lfoot -5.80514 -18.5175
ltoes -17.2991
255
root -6.32602 18.1814 -0.416451 -170.711 63.7552 -182.065
lowerback -6.03925 -6.17241 3.27005
upperback 4.38186 -8.7862 11.487
thorax 9.56552 -4.28811 9.47576
lowerneck -9.46642 -4.2929 0.0151363
upperneck 28.577 -0.777839 -14.2818
head 10.6594 -1.47044 -5.2049
rclavicle -4.92986e-014 9.54166e-014
rhumerus -6.49022 0.995599 -92.755
rradius 45.3922
rwrist -65.2302
rhand -46.7195 4.19566
rfingers 7.12502
rthumb -19.4376 -24.8528
lclavicle -4.92986e-014 9.54166e-014
lhumerus 14.3995 -43.9844 102.743
lradius 10.879
lwrist -16.2796
lhand 6.93023 46.5524
lfingers 7.12502
lthumb -147.791 -106.284
rfemur -18.6488 -1.1264 5.37548
rtibia 37.1529
rfoot -4.22714 -24.8801
rtoes 5.65955
lfemur -19.6926 4.34783 -17.4647
ltibia 12.6621
lfoot -6.16074 -19.0758
ltoes -19.6052
256
root -6.2996 18.1837 -0.462471 -172.03 62.8702 -182.705
lowerback -6.32827 -5.37406 3.01947
upperback 4.3362 -7.68046 11.9023
thorax 9.61974 -3.7611 10.2798
lowerneck -9.51111 -5.44652 -0.408252
upperneck 28.9505 -2.23871 -14.2532
head 10.6863 -2.16002 -5.29049
rclavicle -1.90833e-014 -9.54166e-015
rhumerus -5.78596 0.482456 -93.6084
rradius 41.1583
rwrist -62.6382
rhand -42.747 -1.67151
rfingers 7.12502
rthumb -15.6147 -31.0613
lclavicle -1.90833e-014 -9.54166e-015
lhumerus 12.8172 -43.3325 102.977
lradius 10.5532
lwrist -14.4283
lhand 8.797 49.2773
lfingers 7.12502
lthumb -146.016 -103.935
rfemur -17.5978 -0.397632 4.77237
rtibia 37.5052
rfoot -3.76572 -25.0309
rtoes 6.93935
lfemur -18.4127 4.60541 -18.0814
ltibia 11.7894
lfoot -5.61738 -19.8641
ltoes -17.9824
257
root -6.28533 18.1749 -0.53825 -173.246 59.8034 -183.599
lowerback -7.19916 -5.14408 3.87071
upperback 3.96993 -7.46557 11.8376
thorax 9.55209 -3.56402 9.68532
lowerneck -9.40841 -6.55724 -0.373931
upperneck 29.2823 -3.89746 -13.8151
head 10.6439 -2.85218 -5.31184
rclavicle -1.90833e-014 -1.24042e-013
rhumerus -5.03269 -0.346967 -95.2714
rradius 37.3286
rwrist -60.6626
rhand -38.1413 -5.71683
rfingers 7.12502
rthumb -11.1755 -35.3992
lclavicle -1.90833e-014 -1.24042e-013
lhumerus 11.3568 -43.5787 102.348
lradius 10.5158
lwrist -11.4099
lhand 10.3723 52.037
lfingers 7.12502
lthumb -144.521 -101.52
rfemur -16.0814 -1.59862 4.21283
rtibia 37.8182
rfoot -3.62883 -25.2849
rtoes 8.6349
lfemur -17.8002 3.04033 -18.7177
ltibia 10.843
lfoot -3.37892 -21.1772
ltoes -10.3208
258
root -6.27383 18.1707 -0.603546 -174.118 57.628 -183.938
lowerback -7.53795 -4.80884 4.18349
upperback 3.58552 -6.99221 12.1874
thorax 9.2622 -3.29111 9.97275
lowerneck -8.93102 -7.66273 -0.928034
upperneck 29.4669 -5.38034 -13.5296
head 10.5264 -3.51851 -5.23923
rclavicle -6.36111e-014 1.04958e-013
rhumerus -4.57579 0.0976092 -96.3311
rradius 34.0932
rwrist -59.3894
rhand -33.9082 -7.88616
rfingers 7.12502
rthumb -7.09098 -37.7474
lclavicle -6.36111e-014 1.04958e-013
lhumerus 10.0706 -43.5941 102.138
lradius 10.6139
lwrist -6.97671
lhand 10.579 55.8349
lfingers 7.12502
lthumb -144.325 -97.7695
rfemur -14.7309 -2.27409 3.79956
rtibia 38.0513
rfoot -2.98578 -25.2524
rtoes 9.75778
lfemur -16.7031 1.81422 -19.0641
ltibia 9.62127
lfoot -1.71031 -21.7892
ltoes -4.81143
259
root -6.25635 18.1689 -0.663058 -175.086 55.5639 -184.246
lowerback -7.46233 -4.67596 3.8239
upperback 2.99176 -6.63977 12.9316
thorax 8.66029 -3.12316 11.1218
lowerneck -8.02644 -8.70863 -2.03409
upperneck 29.6169 -6.56836 -13.5213
head 10.3777 -4.10942 -5.11804
rclavicle 6.04305e-014 -1.08139e-013
rhumerus -4.43481 0.801283 -96.9895
rradius 31.1303
rwrist -57.593
rhand -29.5045 -9.69037
rfingers 7.12502
rthumb -2.8389 -39.6512
lclavicle 6.04305e-014 -1.08139e-013
lhumerus 8.33856 -41.8104 102.954
lradius 10.9274
lwrist -3.12438
lhand 10.1551 59.6262
lfingers 7.12502
lthumb -144.727 -93.882
rfemur -13.1808 -2.80537 3.39843
rtibia 38.1486
rfoot -2.15106 -25.2248
rtoes 9.86807
lfemur -15.4523 0.711226 -19.4257
ltibia 8.49724
lfoot -0.889493 -22.517
ltoes -3.35942
260
root -6.23276 18.1627 -0.717368 -176.163 53.974 -184.605
lowerback -7.25138 -4.21662 3.46652
upperback 2.51395 -5.83452 13.485
thorax 7.97871 -2.71584 12.1338
lowerneck -7.22609 -9.84429 -2.96386
upperneck 29.8621 -7.96176 -13.3787
head 10.2837 -4.76606 -5.00571
rclavicle 3.49861e-014 1.43125e-013
rhumerus -3.87963 0.229055 -97.8151
rradius 28.2597
rwrist -54.997
rhand -24.5213 -11.4474
rfingers 7.12502
rthumb 1.97388 -41.4181
lclavicle 3.49861e-014 1.43125e-013
lhumerus 6.73949 -39.4324 103.764
lradius 11.3365
lwrist -0.332362
lhand 9.86435 62.5735
lfingers 7.12502
lthumb -145.002 -90.8699
rfemur -11.6267 -2.89374 2.94877
rtibia 38.1316
rfoot -1.45949 -25.2888
rtoes 10.1719
lfemur -14.3084 0.0869634 -19.8959
ltibia 7.92607
lfoot -0.415507 -23.272
ltoes -2.67813
261
root -6.20865 18.1528 -0.769562 -177.043 52.6971 -184.841
lowerback -7.22806 -3.32173 3.57776
upperback 2.24097 -4.53037 13.6633
thorax 7.41564 -2.0228 12.4776
lowerneck -6.72185 -11.1307 -3.44435
upperneck 30.153 -9.77735 -12.8762
head 10.2404 -5.55117 -4.89432
rclavicle 6.36111e-015 8.90555e-014
rhumerus -2.5505 -1.55055 -98.9521
rradius 25.4222
rwrist -51.5683
rhand -19.7549 -12.9494
rfingers 7.12502
rthumb 6.57643 -42.8272
lclavicle 6.36111e-015 8.90555e-014
lhumerus 5.82705 -38.168 103.838
lradius 11.7014
lwrist 2.85467
lhand 8.43648 65.1555
lfingers 7.12502
lthumb -146.358 87.9819
rfemur -10.2403 -2.80809 2.57708
rtibia 38.0386
rfoot -1.19172 -25.426
rtoes 11.4815
lfemur -13.451 -0.204826 -20.3588
ltibia 7.8279
lfoot -0.0933199 -24.0152
ltoes -1.39697
262
root -6.18737 18.1454 -0.81541 -177.404 51.4869 -184.634
lowerback -7.35753 -2.35448 3.8772
upperback 2.00391 -3.15399 13.8671
thorax 6.95321 -1.27848 12.7368
lowerneck -6.25665 -12.406 -3.79285
upperneck 30.2959 -11.6482 -12.3149
head 10.1614 -6.34658 -4.77906
rclavicle 1.30403e-013 6.04305e-014
rhumerus -0.837433 -2.93631 -100.066
rradius 22.8484
rwrist -47.9258
rhand -15.1317 -14.0806
rfingers 7.12502
rthumb 11.0377 -43.7704
lclavicle 1.30403e-013 6.04305e-014
lhumerus 5.43343 -37.3939 103.55
lradius 12.1206
lwrist 6.59103
lhand 6.4217 66.9046
lfingers 7.12502
lthumb -148.275 85.8347
rfemur -9.04181 -2.81207 2.55334
rtibia 37.8871
rfoot -0.81765 -25.562
rtoes 12.329
lfemur -12.9645 -0.402233 -20.5076
ltibia 8.06856
lfoot 0.270698 -24.7658
ltoes 0.641163
263
root -6.17825 18.1337 -0.867492 -177.753 49.7385 -184.287
lowerback -7.38034 -1.69108 4.26628
upperback 1.68851 -2.14841 14.1914
thorax 6.42115 -0.702992 13.0223
lowerneck -5.56085 -13.563 -4.30339
upperneck 30.1986 -13.3249 -11.8494
head 9.99164 -7.07415 -4.62127
rclavicle 2.8625e-014 -2.54444e-014
rhumerus 0.824222 -2.75735 -100.915
rradius 20.8368
rwrist -44.8864
rhand -11.0048 -14.7401
rfingers 7.12502
rthumb 15.0159 -44.1756
lclavicle 2.8625e-014 -2.54444e-014
lhumerus 5.28419 -36.2751 103.202
lradius 12.6435
lwrist 10.5695
lhand 5.35919 67.7202
lfingers 7.12502
lthumb -149.287 84.8239
rfemur -7.50129 -3.26214 2.63219
rtibia 37.654
rfoot -0.0406029 -25.6427
rtoes 11.9195
lfemur -12.5875 -1.13806 -20.5388
ltibia 8.54887
lfoot 0.783183 -25.5525
ltoes 3.41173
264
root -6.16459 18.123 -0.919649 -178.155 48.2631 -184.08
lowerback -7.52561 -0.953587 4.69014
upperback 1.43574 -1.07593 14.4043
thorax 6.01074 -0.0981254 13.1564
lowerneck -4.85829 -14.6566 -4.78852
upperneck 30.0948 -14.9134 -11.3838
head 9.84157 -7.75961 -4.4591
rclavicle -1.19271e-015 1.97194e-013
rhumerus 2.43695 -0.680798 -101.53
rradius 19.6281
rwrist -42.6203
rhand -7.72684 -15.2794
rfingers 7.12502
rthumb 18.1717 -44.4506
lclavicle -1.19271e-015 1.97194e-013
lhumerus 5.34794 -35.1123 102.661
lradius 13.3502
lwrist 15.3998
lhand 4.55894 68.0674
lfingers 7.12502
lthumb -150.051 84.3362
rfemur -6.02402 -3.43703 2.63025
rtibia 37.3026
rfoot 0.778214 -25.6882
rtoes 11.0935
lfemur -12.3231 -1.59706 -20.6886
ltibia 9.24104
lfoot 0.921797 -26.4564
ltoes 5.37914
